# xmcd
#
# Track frame offsets: 
#        150
#        22537
#        39680
#        51955
#        75055
#        88452
#        102370
#        115035
#        129022
#        141090
#        155462
#        168130
#        186595
#        197667
#        215375
#        229697
#        243220
#        255390
#        279330
#        294307
#
# Disc length: 4139 seconds
#
# Revision: 0
# Processed by: cddbd v1.5.2PL0 Copyright (c) Steve Scherf et al.
# Submitted via: ExactAudioCopyFreeDBPlugin 1.0
#
DISCID=fe102914
DTITLE=Kyle Evans - The Cowboy Collection
DYEAR=1900
DGENRE=Country
TTITLE0=The Hustler
TTITLE1=The Double Diamond
TTITLE2=Tying A Knot In The Devil's Tail
TTITLE3=The Echo Of An Old Man's Last Ride
TTITLE4=Back On Those Texas Plains
TTITLE5=In Heaven On A Horse
TTITLE6=Legend Known As Casey
TTITLE7=Ridin' Down The Canyon
TTITLE8=When The Works All Done This Fall
TTITLE9=Dreamin' Of You
TTITLE10=Old Red
TTITLE11=Silence On The Line
TTITLE12=Ten Seconds In The Saddle
TTITLE13=Yesterday's Rodeo Man
TTITLE14=The Master's Call
TTITLE15=Where The Sweetest Grasses Grow
TTITLE16=Windy Bill
TTITLE17=Mr. Shorty
TTITLE18=Bad Brahma Bull
TTITLE19=Thank You Most Of All For Being You
EXTD=
EXTT0=
EXTT1=
EXTT2=
EXTT3=
EXTT4=
EXTT5=
EXTT6=
EXTT7=
EXTT8=
EXTT9=
EXTT10=
EXTT11=
EXTT12=
EXTT13=
EXTT14=
EXTT15=
EXTT16=
EXTT17=
EXTT18=
EXTT19=
PLAYORDER=
